{"version":2,"width":100,"height":26,"timestamp":1689336008,"env":{"SHELL":"","TERM":"xterm"}}
[ 0.00000, "o", "" ]
[ 0.09079, "o", "\u001b[19491001\u001b[1;35m> \u001b[20210325\u001b[0m" ]
[ 0.99667, "o", "# " ]
[ 1.10150, "o", "转" ]
[ 1.25694, "o", "换" ]
[ 1.41288, "o", "视" ]
[ 1.57002, "o", "频" ]
[ 1.72558, "o", "格" ]
[ 1.88185, "o", "式" ]
[ 1.93432, "o", "\r\n\u001b[?2004l\r" ]
[ 1.93451, "o", "\u001b[?2004h\r\n\u001b[19491001\u001b[1;35m> \u001b[20210325\u001b[0m" ]
[ 3.43873, "o", "x" ]
[ 3.49084, "o", " " ]
[ 3.54249, "o", "f" ]
[ 3.59471, "o", "f" ]
[ 3.64805, "o", "m" ]
[ 3.70044, "o", "p" ]
[ 3.75203, "o", "e" ]
[ 3.80459, "o", "g" ]
[ 3.85665, "o", " " ]
[ 3.90834, "o", "-" ]
[ 3.95991, "o", "i" ]
[ 4.01233, "o", " " ]
[ 4.06459, "o", "t" ]
[ 4.11659, "o", "e" ]
[ 4.16900, "o", "s" ]
[ 4.22089, "o", "t" ]
[ 4.27308, "o", "." ]
[ 4.32554, "o", "m" ]
[ 4.37738, "o", "p" ]
[ 4.42934, "o", "4" ]
[ 4.48191, "o", " " ]
[ 4.53390, "o", "t" ]
[ 4.58602, "o", "e" ]
[ 4.63836, "o", "s" ]
[ 4.69015, "o", "t" ]
[ 4.74203, "o", "." ]
[ 4.79388, "o", "a" ]
[ 4.84605, "o", "v" ]
[ 4.89814, "o", "i" ]
[ 5.95273, "o", "\r\n\u001b[?2004l\r" ]
[ 6.04227, "o", "ffmpeg version 6.0-static https://johnvansickle.com/ffmpeg/  Copyright (c) 2000-2023 the FFmpeg developers\r\n  built with gcc 8 (Debian 8.3.0-6)\r\n  configuration: --enable-gpl --enable-version3 --enable-static --disable-debug --disable-ffplay --disable-indev=sndio --disable-outdev=sndio --cc=gcc --enable-fontconfig --enable-frei0r --enable-gnutls --enable-gmp --enable-libgme --enable-gray --enable-libaom --enable-libfribidi --enable-libass --enable-libvmaf --enable-libfreetype --enable-libmp3lame --enable-libopencore-amrnb --enable-libopencore-amrwb --enable-libopenjpeg --enable-librubberband --enable-libsoxr --enable-libspeex --enable-libsrt --enable-libvorbis --enable-libopus --enable-libtheora --enable-libvidstab --enable-libvo-amrwbenc --enable-libvpx --enable-libwebp --enable-libx264 --enable-libx265 --enable-libxml2 --enable-libdav1d --enable-libxvid --enable-libzvbi --enable-libzimg\r\n  libavutil      58.  2.100 / 58.  2.100\r\n  libavcodec     60.  3.100 / 60.  3.100\r\n  libavformat    60.  3.100 / 60.  3.100\r\n  libavdevice    60.  1.100 / 60.  1.100\r\n  libavfilter     9.  3.100 /  9.  3.100\r\n  libswscale      7.  1.100 /  7.  1.100\r\n  libswresample   4. 10.100 /  4. 10.100\r\n  libpostproc    57.  1.100 / 57.  1.100\r\n" ]
[ 6.04716, "o", "Input #0, mov,mp4,m4a,3gp,3g2,mj2, from 'test.mp4':\r\n  Metadata:\r\n    major_brand     : isom\r\n    minor_version   : 512\r\n    compatible_brands: isomiso2avc1mp41\r\n    creation_time   : 1970-01-01T00:00:00.000000Z\r\n    title           : Sintel Trailer\r\n    artist          : Durian Open Movie Team\r\n    encoder         : Lavf52.62.0\r\n    copyright       : (c) copyright Blender Foundation | durian.blender.org\r\n    description     : Trailer for the Sintel open movie project\r\n  Duration: 00:00:52.21, start: 0.000000, bitrate: 669 kb/s\r\n  Stream #0:0[0x1](und): Video: h264 (High) (avc1 / 0x31637661), yuv420p(progressive), 854x480, 537 kb/s, 24 fps, 24 tbr, 24 tbn (default)\r\n    Metadata:\r\n      creation_time   : 1970-01-01T00:00:00.000000Z\r\n      handler_name    : VideoHandler\r\n      vendor_id       : [0][0][0][0]\r\n" ]
[ 6.04717, "o", "  Stream #0:1[0x2](und): Audio: aac (LC) (mp4a / 0x6134706D), 48000 Hz, stereo, fltp, 126 kb/s (default)\r\n    Metadata:\r\n      creation_time   : 1970-01-01T00:00:00.000000Z\r\n      handler_name    : SoundHandler\r\n      vendor_id       : [0][0][0][0]\r\n" ]
[ 6.05051, "o", "Stream mapping:\r\n  Stream #0:0 -> #0:0 (h264 (native) -> mpeg4 (native))\r\n  Stream #0:1 -> #0:1 (aac (native) -> mp3 (libmp3lame))\r\nPress [q] to stop, [?] for help\r\n" ]
[ 6.06422, "o", "Output #0, avi, to 'test.avi':\r\n  Metadata:\r\n    major_brand     : isom\r\n    minor_version   : 512\r\n    compatible_brands: isomiso2avc1mp41\r\n    description     : Trailer for the Sintel open movie project\r\n    INAM            : Sintel Trailer\r\n    IART            : Durian Open Movie Team\r\n    ICOP            : " ]
[ 6.06426, "o", "(c) copyright Blender Foundation | durian.blender.org\r\n    ISFT            : Lavf60.3.100\r\n" ]
[ 6.06435, "o", "  Stream #0:0(und): Video: mpeg4 (FMP4 / 0x34504D46), yuv420p(progressive), 854x480, q=2-31, 200 kb/s, 24 fps, 24 tbn (default)\r\n    Metadata:\r\n      creation_time   : 1970-01-01T00:00:00.000000Z\r\n      handler_name    : VideoHandler\r\n      vendor_id       : [0][0][0][0]\r\n      encoder         : Lavc60.3.100 mpeg4\r\n    Side data:\r\n      cpb: bitrate max/min/avg: 0/0/200000 buffer size: 0 vbv_delay: N/A\r\n" ]
[ 6.06437, "o", "  Stream #0:1(und): Audio: mp3 (U[0][0][0] / 0x0055), 48000 Hz, stereo, fltp (default)\r\n    Metadata:\r\n" ]
[ 6.06441, "o", "      creation_time   : 1970-01-01T00:00:00.000000Z\r\n      handler_name    : SoundHandler\r\n      vendor_id       : [0][0][0][0]\r\n      encoder         : Lavc60.3.100 libmp3lame\r\n" ]
[ 6.06824, "o", "frame=    0 fps=0.0 q=1.6 size=      10kB time=00:00:00.23 bitrate= 337.0kbits/s speed=25.6x    \r" ]
[ 6.56072, "o", "frame=  294 fps=0.0 q=31.0 size=     768kB time=00:00:12.45 bitrate= 505.2kbits/s speed=24.4x    \r" ]
[ 7.06029, "o", "frame=  582 fps=576 q=31.0 size=    1280kB time=00:00:24.47 bitrate= 428.4kbits/s speed=24.2x    \r" ]
[ 7.56164, "o", "frame=  879 fps=582 q=31.0 size=    2304kB time=00:00:36.81 bitrate= 512.7kbits/s speed=24.4x    \r" ]
[ 8.06198, "o", "frame= 1180 fps=587 q=31.0 size=    2816kB time=00:00:49.36 bitrate= 467.3kbits/s speed=24.5x    \r" ]
[ 8.15241, "o", "frame= 1253 fps=596 q=31.0 Lsize=    3239kB time=00:00:52.16 bitrate= 508.7kbits/s speed=24.8x    \r\nvideo:2337kB audio:812kB subtitle:0kB other streams:0kB global headers:0kB muxing overhead: 2.878306%\r\n" ]
[ 8.15661, "o", "\u001b[?2004h\r\n\u001b[19491001\u001b[1;35m> \u001b[20210325\u001b[0m" ]
[ 12.45631, "o", "# " ]
[ 12.56061, "o", "从" ]
[ 12.71605, "o", "视" ]
[ 12.87189, "o", "频" ]
[ 13.02809, "o", "中" ]
[ 13.18385, "o", "提" ]
[ 13.33980, "o", "取" ]
[ 13.49659, "o", "音" ]
[ 13.65240, "o", "频" ]
[ 13.70417, "o", "\r\n\u001b[?2004l\r\u001b[?2004h\r\n\u001b[19491001\u001b[1;35m> \u001b[20210325\u001b[0m" ]
[ 15.20840, "o", "x" ]
[ 15.26058, "o", " " ]
[ 15.31267, "o", "f" ]
[ 15.36470, "o", "f" ]
[ 15.41649, "o", "m" ]
[ 15.46863, "o", "p" ]
[ 15.52091, "o", "e" ]
[ 15.57323, "o", "g" ]
[ 15.62556, "o", " " ]
[ 15.67741, "o", "-" ]
[ 15.72960, "o", "i" ]
[ 15.78167, "o", " " ]
[ 15.83350, "o", "t" ]
[ 15.88564, "o", "e" ]
[ 15.93778, "o", "s" ]
[ 15.98990, "o", "t" ]
[ 16.04196, "o", "." ]
[ 16.09459, "o", "m" ]
[ 16.14695, "o", "p" ]
[ 16.19938, "o", "4" ]
[ 16.25124, "o", " " ]
[ 16.30341, "o", "-" ]
[ 16.35506, "o", "a" ]
[ 16.40758, "o", "c" ]
[ 16.46017, "o", "o" ]
[ 16.51274, "o", "d" ]
[ 16.56507, "o", "e" ]
[ 16.61707, "o", "c" ]
[ 16.66903, "o", " " ]
[ 16.72087, "o", "l" ]
[ 16.77295, "o", "i" ]
[ 16.82523, "o", "b" ]
[ 16.87739, "o", "m" ]
[ 16.92994, "o", "p" ]
[ 16.98191, "o", "3" ]
[ 17.03411, "o", "l" ]
[ 17.08571, "o", "a" ]
[ 17.13801, "o", "m" ]
[ 17.18974, "o", "e" ]
[ 17.24238, "o", " " ]
[ 17.29444, "o", "-" ]
[ 17.34680, "o", "v" ]
[ 17.39907, "o", "n" ]
[ 17.45120, "o", " " ]
[ 17.50276, "o", "t" ]
[ 17.55440, "o", "e" ]
[ 17.60645, "o", "s" ]
[ 17.65832, "o", "t" ]
[ 17.71080, "o", "." ]
[ 17.76305, "o", "m" ]
[ 17.81536, "o", "p" ]
[ 17.86748, "o", "3" ]
[ 19.42116, "o", "\r\n\u001b[?2004l\r" ]
[ 19.42362, "o", "ffmpeg version 6.0-static https://johnvansickle.com/ffmpeg/  Copyright (c) 2000-2023 the FFmpeg developers\r\n  built with gcc 8 (Debian 8.3.0-6)\r\n  configuration: --enable-gpl --enable-version3 --enable-static --disable-debug --disable-ffplay --disable-indev=sndio --disable-outdev=sndio --cc=gcc --enable-fontconfig --enable-frei0r --enable-gnutls --enable-gmp --enable-libgme --enable-gray --enable-libaom --enable-libfribidi --enable-libass --enable-libvmaf --enable-libfreetype --enable-libmp3lame --enable-libopencore-amrnb --enable-libopencore-amrwb --enable-libopenjpeg --enable-librubberband --enable-libsoxr --enable-libspeex --enable-libsrt --enable-libvorbis --enable-libopus --enable-libtheora --enable-libvidstab --enable-libvo-amrwbenc --enable-libvpx --enable-libwebp --enable-libx264 --enable-libx265 --enable-libxml2 --enable-libdav1d --enable-libxvid --enable-libzvbi --enable-libzimg\r\n" ]
[ 19.42366, "o", "  libavutil      58.  2.100 / 58.  2.100\r\n  libavcodec     60.  3.100 / 60.  3.100\r\n  libavformat    60.  3.100 / 60.  3.100\r\n  libavdevice    60.  1.100 / 60.  1.100\r\n" ]
[ 19.42367, "o", "  libavfilter     9.  3.100 /  9.  3.100\r\n  libswscale      7.  1.100 /  7.  1.100\r\n  libswresample   4. 10.100 /  4. 10.100\r\n  libpostproc    57.  1.100 / 57.  1.100\r\n" ]
[ 19.42854, "o", "Input #0, mov,mp4,m4a,3gp,3g2,mj2, from 'test.mp4':\r\n  Metadata:\r\n    major_brand     : isom\r\n" ]
[ 19.42855, "o", "    minor_version   : 512\r\n    compatible_brands: isomiso2avc1mp41\r\n" ]
[ 19.42856, "o", "    creation_time   : " ]
[ 19.42858, "o", "1970-01-01T00:00:00.000000Z\r\n" ]
[ 19.42864, "o", "    title           : Sintel Trailer\r\n    artist          : Durian Open Movie Team\r\n    encoder         : Lavf52.62.0\r\n    copyright       : (c) copyright Blender Foundation | durian.blender.org\r\n    description     : Trailer for the Sintel open movie project\r\n" ]
[ 19.42865, "o", "  Duration: 00:00:52.21, start: 0.000000" ]
[ 19.42868, "o", ", bitrate: " ]
[ 19.42869, "o", "669 kb/s\r\n  Stream #0:0[0x1]" ]
[ 19.42876, "o", "(und): Video: h264 (High) (avc1 / 0x31637661), yuv420p(progressive), 854x480, 537 kb/s, 24 fps, 24 tbr, 24 tbn (default)\r\n    Metadata:\r\n      creation_time   : 1970-01-01T00:00:00.000000Z\r\n      handler_name    : VideoHandler\r\n      vendor_id       : [0][0][0][0]\r\n  Stream #0:1[0x2](und): Audio: aac (LC) (mp4a / 0x6134706D), 48000 Hz, stereo, fltp, 126 kb/s (default)\r\n    Metadata:\r\n" ]
[ 19.42878, "o", "      creation_time   : 1970-01-01T00:00:00.000000Z\r\n      handler_name    : SoundHandler\r\n      vendor_id       : [0][0][0][0]\r\n" ]
[ 19.42958, "o", "Stream mapping:\r\n  Stream #0:1 -> #0:0" ]
[ 19.42961, "o", " (aac (native) -> mp3 (libmp3lame))\r\nPress [q] to stop, [?] for help\r\n" ]
[ 19.43256, "o", "Output #0, mp3, to 'test.mp3':\r\n  Metadata:\r\n    major_brand     : isom\r\n    minor_version   : 512\r\n" ]
[ 19.43257, "o", "    compatible_brands: isomiso2avc1mp41\r\n    description     : Trailer for the Sintel open movie project\r\n    TIT2            : Sintel Trailer\r\n" ]
[ 19.43264, "o", "    TPE1            : Durian Open Movie Team\r\n" ]
[ 19.43265, "o", "    TCOP            : (c) copyright Blender Foundation | durian.blender.org\r\n    TSSE            : Lavf60.3.100\r\n  Stream #0:0(und): Audio: mp3, 48000 Hz, stereo, fltp (default)\r\n    Metadata:\r\n      creation_time   : 1970-01-01T00:00:00.000000Z\r\n      handler_name    : SoundHandler\r\n      vendor_id       : [0][0][0][0]\r\n      encoder         : " ]
[ 19.43266, "o", "Lavc60.3.100 libmp3lame\r\n" ]
[ 19.43281, "o", "size=       0kB time=-577014:32:22.77 bitrate=  -0.0kbits/s speed=N/A    \r" ]
[ 19.93032, "o", "size=     256kB time=00:00:24.47 bitrate=  85.7kbits/s speed=48.9x    \r" ]
[ 20.43106, "o", "size=     512kB time=00:00:48.57 bitrate=  86.3kbits/s speed=48.5x    \r" ]
[ 20.47936, "o", "size=     812kB time=00:00:51.93 bitrate= 128.1kbits/s speed=49.5x    \r\nvideo:0kB audio:812kB subtitle:0kB other streams:0kB global headers:0kB muxing overhead: 0.063631%\r\n" ]
[ 20.48040, "o", "\u001b[?2004h\r\n\u001b[19491001\u001b[1;35m> \u001b[20210325\u001b[0m" ]
[ 25.92573, "o", "# " ]
[ 26.03026, "o", "查" ]
[ 26.18553, "o", "看" ]
[ 26.34095, "o", "音" ]
[ 26.49659, "o", "频" ]
[ 26.65185, "o", "文" ]
[ 26.80822, "o", "件" ]
[ 26.96507, "o", "信" ]
[ 27.12057, "o", "息" ]
[ 27.17272, "o", "\r\n\u001b[?2004l\r\u001b[?2004h\r\n\u001b[19491001\u001b[1;35m> \u001b[20210325\u001b[0m" ]
[ 28.67664, "o", "x" ]
[ 28.72844, "o", " " ]
[ 28.78020, "o", "f" ]
[ 28.83211, "o", "f" ]
[ 28.88383, "o", "m" ]
[ 28.93616, "o", "p" ]
[ 28.98871, "o", "e" ]
[ 29.04120, "o", "g" ]
[ 29.09362, "o", " " ]
[ 29.14588, "o", "-" ]
[ 29.19813, "o", "i" ]
[ 29.25003, "o", " " ]
[ 29.30209, "o", "t" ]
[ 29.35410, "o", "e" ]
[ 29.40650, "o", "s" ]
[ 29.45864, "o", "t" ]
[ 29.51060, "o", "." ]
[ 29.56272, "o", "m" ]
[ 29.61465, "o", "p" ]
[ 29.66684, "o", "3" ]
[ 29.71870, "o", " " ]
[ 29.77070, "o", "-" ]
[ 29.82253, "o", "h" ]
[ 29.87487, "o", "i" ]
[ 29.92715, "o", "d" ]
[ 29.97908, "o", "e" ]
[ 30.03139, "o", "_" ]
[ 30.08371, "o", "b" ]
[ 30.13600, "o", "a" ]
[ 30.18810, "o", "n" ]
[ 30.24040, "o", "n" ]
[ 30.29239, "o", "e" ]
[ 30.34473, "o", "r" ]
[ 31.89876, "o", "\r\n\u001b[?2004l\r" ]
[ 31.90319, "o", "Input #0, mp3, from 'test.mp3':\r\n  Metadata:\r\n    major_brand     : isom\r\n    minor_version   : 512\r\n    compatible_brands: isomiso2avc1mp41\r\n    description     : Trailer for the Sintel open movie project\r\n    title           : Sintel Trailer\r\n    artist          : Durian Open Movie Team\r\n    copyright       : (c) copyright Blender Foundation | durian.blender.org\r\n    encoder         : Lavf60.3.100\r\n  Duration: 00:00:51.96, start: 0.023021, bitrate: 128 kb/s\r\n  Stream #0:0: Audio: mp3, 48000 Hz, stereo, fltp, 128 kb/s\r\n    Metadata:\r\n      encoder         : Lavc60.3.\r\n\u001b[4;31mAt least one output file must be specified\r\n\u001b[0m" ]
[ 31.90396, "o", "\u001b[?2004h\r\n\u001b[19491001\u001b[1;35m> \u001b[20210325\u001b[0m" ]
[ 38.40407, "o", "# " ]
[ 38.50879, "o", "修" ]
[ 38.66424, "o", "改" ]
[ 38.81964, "o", "视" ]
[ 38.97585, "o", "频" ]
[ 39.13165, "o", "编" ]
[ 39.28692, "o", "码" ]
[ 39.44238, "o", "格" ]
[ 39.59852, "o", "式" ]
[ 39.65045, "o", "\r\n\u001b[?2004l\r" ]
[ 39.65053, "o", "\u001b[?2004h\r\n\u001b[19491001\u001b[1;35m> \u001b[20210325\u001b[0m" ]
[ 41.15432, "o", "x" ]
[ 41.20628, "o", " " ]
[ 41.25871, "o", "f" ]
[ 41.31047, "o", "f" ]
[ 41.36225, "o", "m" ]
[ 41.41410, "o", "p" ]
[ 41.46657, "o", "e" ]
[ 41.51874, "o", "g" ]
[ 41.57078, "o", " " ]
[ 41.62318, "o", "-" ]
[ 41.67506, "o", "i" ]
[ 41.72689, "o", " " ]
[ 41.77835, "o", "t" ]
[ 41.83071, "o", "e" ]
[ 41.88253, "o", "s" ]
[ 41.93490, "o", "t" ]
[ 41.98659, "o", "." ]
[ 42.03912, "o", "m" ]
[ 42.09193, "o", "p" ]
[ 42.14383, "o", "4" ]
[ 42.19589, "o", " " ]
[ 42.24768, "o", "-" ]
[ 42.29989, "o", "c" ]
[ 42.35147, "o", ":" ]
[ 42.40348, "o", "v" ]
[ 42.45562, "o", " " ]
[ 42.50777, "o", "l" ]
[ 42.55971, "o", "i" ]
[ 42.61132, "o", "b" ]
[ 42.66299, "o", "x" ]
[ 42.71453, "o", "2" ]
[ 42.76679, "o", "6" ]
[ 42.81860, "o", "4" ]
[ 42.87058, "o", " " ]
[ 42.92285, "o", "t" ]
[ 42.97553, "o", "e" ]
[ 43.02793, "o", "s" ]
[ 43.07958, "o", "t" ]
[ 43.13118, "o", "1" ]
[ 43.18285, "o", "." ]
[ 43.23508, "o", "m" ]
[ 43.28717, "o", "p" ]
[ 43.33936, "o", "4" ]
[ 44.89364, "o", "\r\n\u001b[?2004l\r" ]
[ 44.89601, "o", "ffmpeg version 6.0-static https://johnvansickle.com/ffmpeg/  Copyright (c) 2000-2023 the FFmpeg developers\r\n  built with gcc 8 (Debian 8.3.0-6)\r\n  configuration: --enable-gpl --enable-version3 --enable-static --disable-debug --disable-ffplay --disable-indev=sndio --disable-outdev=sndio --cc=gcc --enable-fontconfig --enable-frei0r --enable-gnutls --enable-gmp --enable-libgme --enable-gray --enable-libaom --enable-libfribidi --enable-libass --enable-libvmaf --enable-libfreetype --enable-libmp3lame --enable-libopencore-amrnb --enable-libopencore-amrwb --enable-libopenjpeg --enable-librubberband --enable-libsoxr --enable-libspeex --enable-libsrt --enable-libvorbis --enable-libopus --enable-libtheora --enable-libvidstab --enable-libvo-amrwbenc --enable-libvpx --enable-libwebp --enable-libx264 --enable-libx265 --enable-libxml2 --enable-libdav1d --enable-libxvid --enable-libzvbi --enable-libzimg\r\n  libavutil      58.  2.100 / 58.  2.100\r\n" ]
[ 44.89602, "o", "  libavcodec     60.  3.100 / 60.  3.100\r\n  libavformat    60.  3.100 / 60.  3.100\r\n  libavdevice    60.  1.100 / 60.  1.100\r\n  libavfilter     9.  3.100 /  9.  3.100\r\n  libswscale      7.  1.100 /  7.  1.100\r\n  libswresample   4. 10.100 /  4. 10.100\r\n  libpostproc    57.  1.100 / 57.  1.100\r\n" ]
[ 44.90052, "o", "Input #0, mov,mp4,m4a,3gp,3g2,mj2, from 'test.mp4':\r\n  Metadata:\r\n    major_brand     : isom\r\n    minor_version   : 512\r\n    compatible_brands: isomiso2avc1mp41\r\n    creation_time   : 1970-01-01T00:00:00.000000Z\r\n    title           : Sintel Trailer\r\n    artist          : Durian Open Movie Team\r\n    encoder         : Lavf52.62.0\r\n    copyright       : (c) copyright Blender Foundation | durian.blender.org\r\n    description     : Trailer for the Sintel open movie project\r\n  Duration: 00:00:52.21, start: 0.000000, bitrate: 669 kb/s\r\n  Stream #0:0[0x1](und): Video: h264 (High) (avc1 / 0x31637661), yuv420p(progressive), 854x480, 537 kb/s, 24 fps, 24 tbr, 24 tbn (default)\r\n    Metadata:\r\n" ]
[ 44.90053, "o", "      creation_time   : 1970-01-01T00:00:00.000000Z\r\n      handler_name    : VideoHandler\r\n      vendor_id       : [0][0][0][0]\r\n  Stream #0:1[0x2](und): Audio: aac (LC) (mp4a / 0x6134706D), 48000 Hz, stereo, fltp, 126 kb/s (default)\r\n" ]
[ 44.90056, "o", "    Metadata:\r\n" ]
[ 44.90061, "o", "      creation_time   : 1970-01-01T00:00:00.000000Z\r\n      handler_name    : SoundHandler" ]
[ 44.90061, "o", "\r\n      vendor_id       : " ]
[ 44.90068, "o", "[0][0][0][0]\r\n" ]
[ 44.90436, "o", "Stream mapping:\r\n  Stream #0:0 -> #0:0 (h264 (native) -> h264 (libx264))\r\n  Stream #0:1 -> #0:1 (aac (native) -> aac (native))\r\nPress [q] to stop, [?] for help\r\n" ]
[ 44.92597, "o", "\u001b[1;36m[libx264 @ 0x63d7a80] \u001b[0musing cpu capabilities: MMX2 SSE2Fast SSSE3 SSE4.2 AVX FMA3 BMI2 AVX2\r\n" ]
[ 44.92892, "o", "\u001b[1;36m[libx264 @ 0x63d7a80] \u001b[0mprofile High, level 3.0, 4:2:0, 8-bit\r\n\u001b[1;36m[libx264 @ 0x63d7a80] \u001b[0m264 - core 164 r3106 eaa68fa - H.264/MPEG-4 AVC codec - Copyleft 2003-2023 - http://www.videolan.org/x264.html - options: cabac=1 ref=3 deblock=1:0:0 analyse=0x3:0x113 me=hex subme=7 psy=1 psy_rd=1.00:0.00 mixed_ref=1 me_range=16 chroma_me=1 trellis=1 8x8dct=1 cqm=0 deadzone=21,11 fast_pskip=1 chroma_qp_offset=-2 threads=12 lookahead_threads=2 sliced_threads=0 nr=0 decimate=1 interlaced=0 bluray_compat=0 constrained_intra=0 bframes=3 b_pyramid=2 b_adapt=1 b_bias=0 direct=1 weightb=1 open_gop=0 weightp=2 keyint=250 keyint_min=24 scenecut=40 intra_refresh=0 rc_lookahead=40 rc=crf mbtree=1 crf=23.0 qcomp=0.60 qpmin=0 qpmax=69 qpstep=4 ip_ratio=1.40 aq=1:1.00\r\n" ]
[ 44.92905, "o", "Output #0, mp4, to 'test1.mp4':\r\n  Metadata:\r\n    major_brand     : isom\r\n    minor_version   : 512\r\n    compatible_brands: isomiso2avc1mp41\r\n    description     : Trailer for the Sintel open movie project\r\n    title           : Sintel Trailer\r\n    artist          : Durian Open Movie Team\r\n    copyright       : (c) copyright Blender Foundation | durian.blender.org\r\n    encoder         : Lavf60.3.100\r\n  Stream #0:0(und): Video: h264 (avc1 / 0x31637661), yuv420p(progressive), 854x480, q=2-31, 24 fps, 12288 tbn (default)\r\n    Metadata:\r\n      creation_time   : 1970-01-01T00:00:00.000000Z\r\n      handler_name    : VideoHandler\r\n      vendor_id       : [0][0][0][0]\r\n      encoder         : Lavc60.3.100 libx264" ]
[ 44.92906, "o", "\r\n    Side data:\r\n      cpb: bitrate max/min/avg: 0/0/0 buffer size: 0 vbv_delay: N/A\r\n" ]
[ 44.92912, "o", "  Stream #0:1" ]
[ 44.92912, "o", "(und): Audio: aac (LC) (mp4a / 0x6134706D), 48000 Hz, stereo, fltp, 128 kb/s (default)\r\n    Metadata:\r\n      creation_time   : 1970-01-01T00:00:00.000000Z\r\n      handler_name    : SoundHandler\r\n      vendor_id       : [0][0][0][0]\r\n" ]
[ 44.92919, "o", "      encoder         : Lavc60.3.100 aac\r\n" ]
[ 44.93015, "o", "frame=    0 fps=0.0 q=0.0 size=       0kB time=00:00:00.27 bitrate=   1.4kbits/s speed=14.5x    \r" ]
[ 45.42740, "o", "frame=   48 fps=0.0 q=28.0 size=       0kB time=00:00:04.58 bitrate=   0.1kbits/s speed=8.83x    \r" ]
[ 45.92476, "o", "frame=  124 fps=122 q=28.0 size=     256kB time=00:00:07.78 bitrate= 269.4kbits/s speed=7.64x    \r" ]
[ 46.43062, "o", "frame=  217 fps=142 q=28.0 size=     512kB time=00:00:11.62 bitrate= 360.8kbits/s speed=7.62x    \r" ]
[ 46.93430, "o", "frame=  343 fps=169 q=28.0 size=     768kB time=00:00:16.89 bitrate= 372.4kbits/s speed=8.33x    \r" ]
[ 47.43492, "o", "frame=  445 fps=176 q=28.0 size=    1280kB time=00:00:21.14 bitrate= 496.0kbits/s speed=8.36x    \r" ]
[ 47.93765, "o", "frame=  542 fps=179 q=28.0 size=    1536kB time=00:00:25.17 bitrate= 499.9kbits/s speed= 8.3x    \r" ]
[ 48.43836, "o", "frame=  619 fps=175 q=28.0 size=    2048kB time=00:00:28.39 bitrate= 590.9kbits/s speed=8.04x    \r" ]
[ 48.94017, "o", "frame=  703 fps=174 q=28.0 size=    2304kB time=00:00:31.89 bitrate= 591.8kbits/s speed= 7.9x    \r" ]
[ 49.44309, "o", "frame=  779 fps=172 q=28.0 size=    2816kB time=00:00:35.05 bitrate= 658.2kbits/s speed=7.72x    \r" ]
[ 49.94403, "o", "frame=  859 fps=170 q=28.0 size=    3072kB time=00:00:38.35 bitrate= 656.1kbits/s speed=7.61x    \r" ]
[ 50.44506, "o", "frame=  954 fps=172 q=28.0 size=    3328kB time=00:00:42.34 bitrate= 643.8kbits/s speed=7.64x    \r" ]
[ 50.94423, "o", "frame= 1119 fps=185 q=28.0 size=    3584kB time=00:00:49.23 bitrate= 596.3kbits/s speed=8.15x    \r" ]
[ 51.15054, "o", "frame= 1253 fps=201 q=-1.0 Lsize=    3870kB time=00:00:52.08 bitrate= 608.6kbits/s speed=8.34x    \r\nvideo:3017kB audio:817kB subtitle:0kB other streams:0kB global headers:0kB muxing overhead: 0.943318%" ]
[ 51.15056, "o", "\r\n" ]
[ 51.15199, "o", "\u001b[1;36m[libx264 @ 0x63d7a80] \u001b[0mframe I:21    Avg QP:15.40  size:  9532\r\n\u001b[1;36m[libx264 @ 0x63d7a80] \u001b[0mframe P:414   Avg QP:20.00  size:  4458\r\n" ]
[ 51.15202, "o", "\u001b[1;36m[libx264 @ 0x63d7a80] \u001b[0mframe B:818   Avg QP:20.34  size:  1275\r\n\u001b[1;36m[libx264 @ 0x63d7a80] \u001b[0m" ]
[ 51.15204, "o", "consecutive B-frames:  7.6% 11.0% 15.3% 66.1%\r\n\u001b[1;36m[libx264 @ 0x63d7a80] \u001b[0mmb I  I16..4: 42.3% 50.1%  7.6%\r\n" ]
[ 51.15236, "o", "\u001b[1;36m[libx264 @ 0x63d7a80] \u001b[0mmb P  I16..4:  7.6% 13.7%  1.2%  P16..4: 22.2%  5.7%  2.2%  0.0%  0.0%    skip:47.4%\r\n\u001b[1;36m[libx264 @ 0x63d7a80] \u001b[0mmb B  I16..4:  0.9%  1.4%  0.1%  B16..8: 16.7%  1.9%  0.3%  direct: 2.2%  skip:76.5%  L0:42.3% L1:49.3% BI: 8.5%\r\n\u001b[1;36m[libx264 @ 0x63d7a80] \u001b[0m8x8 transform intra:59.0% inter:82.2%\r\n\u001b[1;36m[libx264 @ 0x63d7a80] \u001b[0mcoded y,uvDC,uvAC intra: 28.2% 36.9% 9.2% inter: 5.9% 9.0% 0.2%\r\n\u001b[1;36m[libx264 @ 0x63d7a80] \u001b[0mi16 v,h,dc,p: 29% 39%  6% 26%\r\n\u001b[1;36m[libx264 @ 0x63d7a80] \u001b[0mi8 v,h,dc,ddl,ddr,vr,hd,vl,hu: 21% 24% 25%  4%  5%  5%  6%  4%  5%\r\n\u001b[1;36m[libx264 @ 0x63d7a80] \u001b[0mi4 v,h,dc,ddl,ddr,vr,hd,vl,hu: 17% 28% 19%  6%  8%  6%  7%  5%  4%\r\n\u001b[1;36m[libx264 @ 0x63d7a80] \u001b[0mi8c dc,h,v,p: 60% 24% 11%  4%\r\n\u001b[1;36m[libx264 @ 0x63d7a80] \u001b[0mWeighted P-Frames: Y:39.1% UV:26.6%\r\n\u001b[1;36m[libx264 @ 0x63d7a80] \u001b[0mref P L0: 73.6% 11.9% 10.6%  3.6%  0.3%\r\n\u001b[1;36m[libx264 @ 0x63d7a80] \u001b[0mref B L0: 90.6%  7.7%  1.7%\r\n\u001b[1;36m[libx264 @ 0x63d7a80] \u001b[0mref B L1: 98.1%  1.9%\r\n\u001b[1;36m[libx264 @ 0x63d7a80] \u001b[0mkb/s:473.24\r\n" ]
[ 51.16143, "o", "\u001b[1;36m[aac @ 0x63d6500] \u001b[0mQavg: 658.517\r\n" ]
[ 51.16687, "o", "\u001b[?2004h\r\n\u001b[19491001\u001b[1;35m> \u001b[20210325\u001b[0m" ]
[ 51.39833, "o", "# " ]
[ 51.50262, "o", "将" ]
[ 51.65881, "o", "视" ]
[ 51.81409, "o", "频" ]
[ 51.96930, "o", "比" ]
[ 52.12485, "o", "特" ]
[ 52.28010, "o", "率" ]
[ 52.43539, "o", "设" ]
[ 52.59084, "o", "置" ]
[ 52.74580, "o", "为" ]
[ 52.79822, "o", " " ]
[ 52.85056, "o", "6" ]
[ 52.90266, "o", "4" ]
[ 52.95451, "o", " " ]
[ 53.00642, "o", "k" ]
[ 53.05870, "o", "b" ]
[ 53.11075, "o", "i" ]
[ 53.16306, "o", "t" ]
[ 53.21538, "o", "/" ]
[ 53.26715, "o", "s" ]
[ 53.31902, "o", "\r\n\u001b[?2004l\r" ]
[ 53.31910, "o", "\u001b[?2004h\r\n\u001b[19491001\u001b[1;35m> \u001b[20210325\u001b[0m" ]
[ 54.82317, "o", "x" ]
[ 54.87487, "o", " " ]
[ 54.92679, "o", "f" ]
[ 54.97892, "o", "f" ]
[ 55.03167, "o", "m" ]
[ 55.08385, "o", "p" ]
[ 55.13579, "o", "e" ]
[ 55.18773, "o", "g" ]
[ 55.23950, "o", " " ]
[ 55.29185, "o", "-" ]
[ 55.34418, "o", "i" ]
[ 55.39673, "o", " " ]
[ 55.44881, "o", "t" ]
[ 55.50114, "o", "e" ]
[ 55.55347, "o", "s" ]
[ 55.60505, "o", "t" ]
[ 55.65697, "o", "." ]
[ 55.70879, "o", "m" ]
[ 55.76101, "o", "p" ]
[ 55.81289, "o", "4" ]
[ 55.86470, "o", " " ]
[ 55.91611, "o", "-" ]
[ 55.96761, "o", "b" ]
[ 56.01973, "o", ":" ]
[ 56.07167, "o", "v" ]
[ 56.12346, "o", " " ]
[ 56.17501, "o", "6" ]
[ 56.22694, "o", "4" ]
[ 56.27882, "o", "k" ]
[ 56.33065, "o", " " ]
[ 56.38317, "o", "t" ]
[ 56.43507, "o", "e" ]
[ 56.48697, "o", "s" ]
[ 56.53883, "o", "t" ]
[ 56.59070, "o", "2" ]
[ 56.64242, "o", "." ]
[ 56.69463, "o", "m" ]
[ 56.74649, "o", "p" ]
[ 56.79837, "o", "4" ]
[ 58.35254, "o", "\r\n\u001b[?2004l\r" ]
[ 58.35436, "o", "ffmpeg version 6.0-static https://johnvansickle.com/ffmpeg/  Copyright (c) 2000-2023 the FFmpeg developers\r\n  built with gcc 8 (Debian 8.3.0-6)\r\n  configuration: --enable-gpl --enable-version3 --enable-static --disable-debug --disable-ffplay --disable-indev=sndio --disable-outdev=sndio --cc=gcc --enable-fontconfig --enable-frei0r --enable-gnutls --enable-gmp --enable-libgme --enable-gray --enable-libaom --enable-libfribidi --enable-libass --enable-libvmaf --enable-libfreetype --enable-libmp3lame --enable-libopencore-amrnb --enable-libopencore-amrwb --enable-libopenjpeg --enable-librubberband --enable-libsoxr --enable-libspeex --enable-libsrt --enable-libvorbis --enable-libopus --enable-libtheora --enable-libvidstab --enable-libvo-amrwbenc --enable-libvpx --enable-libwebp --enable-libx264 --enable-libx265 --enable-libxml2 --enable-libdav1d --enable-libxvid --enable-libzvbi --enable-libzimg\r\n  libavutil      58.  2.100 / 58.  2.100\r\n  libavcodec     60.  3.100 / 60.  3.100\r\n  libavformat    60.  3.100 / 60.  3.100\r\n  libavdevice    60.  1.100 / 60.  1.100\r\n  libavfilter     9.  3.100 /  9.  3.100\r\n  libswscale      7.  1.100 /  7.  1.100\r\n  libswresample   4. 10.100 /  4. 10.100\r\n  libpostproc    57.  1.100 / 57.  1.100\r\n" ]
[ 58.35866, "o", "Input #0, mov,mp4,m4a,3gp,3g2,mj2, from 'test.mp4':\r\n  Metadata:\r\n    major_brand     : isom\r\n    minor_version   : 512\r\n    compatible_brands: isomiso2avc1mp41\r\n    creation_time   : 1970-01-01T00:00:00.000000Z\r\n    title           : Sintel Trailer\r\n    artist          : Durian Open Movie Team\r\n    encoder         : Lavf52.62.0\r\n    copyright       : (c) copyright Blender Foundation | durian.blender.org\r\n    description     : Trailer for the Sintel open movie project\r\n  Duration: 00:00:52.21, start: 0.000000, bitrate: 669 kb/s\r\n  Stream #0:0[0x1](und): Video: h264 (High) (avc1 / 0x31637661), yuv420p(progressive), 854x480, 537 kb/s, 24 fps, 24 tbr, 24 tbn (default)\r\n    Metadata:\r\n      creation_time   : 1970-01-01T00:00:00.000000Z\r\n      handler_name    : VideoHandler\r\n      vendor_id       : [0][0][0][0]\r\n  Stream #0:1[0x2](und): Audio: aac (LC) (mp4a / 0x6134706D), 48000 Hz, stereo, fltp, 126 kb/s (default)\r\n    Metadata:\r\n      creation_time   : 1970-01-01T00:00:00.000000Z\r\n      handler_name    : SoundHandler\r\n      vendor_id       : [0][0][0][0]\r\n" ]
[ 58.36253, "o", "Stream mapping:\r\n  Stream #0:0 -> #0:0 (h264 (native) -> h264 (libx264))\r\n  Stream #0:1 -> #0:1 (aac (native) -> aac (native))\r\nPress [q] to stop, [?] for help\r\n" ]
[ 58.38400, "o", "\u001b[1;36m[libx264 @ 0x5f9ca80] \u001b[0musing cpu capabilities: MMX2 SSE2Fast SSSE3 SSE4.2 AVX FMA3 BMI2 AVX2\r\n" ]
[ 58.38807, "o", "\u001b[1;36m[libx264 @ 0x5f9ca80] \u001b[0mprofile High, level 3.0, 4:2:0, 8-bit\r\n" ]
[ 58.38855, "o", "\u001b[1;36m[libx264 @ 0x5f9ca80] \u001b[0m264 - core 164 r3106 eaa68fa - H.264/MPEG-4 AVC codec - Copyleft 2003-2023 - http://www.videolan.org/x264.html - options: cabac=1 ref=3 deblock=1:0:0 analyse=0x3:0x113 me=hex subme=7 psy=1 psy_rd=1.00:0.00 mixed_ref=1 me_range=16 chroma_me=1 trellis=1 8x8dct=1 cqm=0 deadzone=21,11 fast_pskip=1 chroma_qp_offset=-2 threads=12 lookahead_threads=2 sliced_threads=0 nr=0 decimate=1 interlaced=0 bluray_compat=0 constrained_intra=0 bframes=3 b_pyramid=2 b_adapt=1 b_bias=0 direct=1 weightb=1 open_gop=0 weightp=2 keyint=250 keyint_min=24 scenecut=40 intra_refresh=0 rc_lookahead=40 rc=abr mbtree=1 bitrate=64 ratetol=1.0 qcomp=0.60 qpmin=0 qpmax=69 qpstep=4 ip_ratio=1.40 aq=1:1.00\r\n" ]
[ 58.38862, "o", "Output #0, mp4, to 'test2.mp4':\r\n  Metadata:\r\n    major_brand     : isom\r\n    minor_version   : 512\r\n    compatible_brands: isomiso2avc1mp41\r\n    description     : Trailer for the Sintel open movie project\r\n    title           : Sintel Trailer\r\n    artist          : Durian Open Movie Team\r\n    copyright       : (c) copyright Blender Foundation | durian.blender.org\r\n    encoder         : Lavf60.3.100\r\n" ]
[ 58.38872, "o", "  Stream #0:0(und): Video: h264 (avc1 / 0x31637661), yuv420p(progressive), 854x480, q=2-31, 64 kb/s, 24 fps, 12288 tbn (default)\r\n    Metadata:\r\n      creation_time   : 1970-01-01T00:00:00.000000Z\r\n      handler_name    : VideoHandler\r\n      vendor_id       : [0][0][0][0]\r\n      encoder         : Lavc60.3.100 libx264\r\n    Side data:\r\n      cpb: bitrate max/min/avg: 0/0/64000 buffer size: 0 vbv_delay: N/A\r\n  Stream #0:1(und)" ]
[ 58.38873, "o", ": Audio: aac (LC) (mp4a / 0x6134706D), 48000 Hz, stereo, fltp, 128 kb/s (default)" ]
[ 58.38881, "o", "\r\n    Metadata:\r\n      creation_time   : 1970-01-01T00:00:00.000000Z\r\n" ]
[ 58.38886, "o", "      handler_name    : SoundHandler\r\n" ]
[ 58.38887, "o", "      vendor_id       : " ]
[ 58.38892, "o", "[0][0][0][0]\r\n      encoder         : Lavc60.3.100 aac\r\n" ]
[ 58.38992, "o", "frame=    0 fps=0.0 q=0.0 size=       0kB time=00:00:00.27 bitrate=   1.4kbits/s speed=14.9x    \r" ]
[ 58.88352, "o", "frame=   59 fps=0.0 q=42.0 size=       0kB time=00:00:05.07 bitrate=   0.1kbits/s speed=9.78x    \r" ]
[ 59.38850, "o", "frame=  158 fps=154 q=47.0 size=       0kB time=00:00:09.17 bitrate=   0.0kbits/s speed=8.95x    \r" ]
[ 59.89138, "o", "frame=  312 fps=204 q=44.0 size=     256kB time=00:00:15.59 bitrate= 134.5kbits/s speed=10.2x    \r" ]
[ 60.39162, "o", "frame=  451 fps=222 q=46.0 size=     256kB time=00:00:21.39 bitrate=  98.0kbits/s speed=10.5x    \r" ]
[ 60.89209, "o", "frame=  567 fps=224 q=49.0 size=     512kB time=00:00:26.21 bitrate= 160.0kbits/s speed=10.4x    \r" ]
[ 61.39401, "o", "frame=  678 fps=224 q=52.0 size=     512kB time=00:00:30.84 bitrate= 136.0kbits/s speed=10.2x    \r" ]
[ 61.89306, "o", "frame=  803 fps=227 q=55.0 size=     768kB time=00:00:36.07 bitrate= 174.4kbits/s speed=10.2x    \r" ]
[ 62.39317, "o", "frame=  956 fps=237 q=54.0 size=     768kB time=00:00:42.45 bitrate= 148.2kbits/s speed=10.5x    \r" ]
[ 62.91966, "o", "frame= 1253 fps=275 q=-1.0 Lsize=    1245kB time=00:00:52.08 bitrate= 195.9kbits/s speed=11.4x    \r\nvideo:393kB audio:817kB subtitle:0kB other streams:0kB global headers:0kB muxing overhead: 2.990225%\r\n" ]
[ 62.92070, "o", "\u001b[1;36m[libx264 @ 0x5f9ca80] \u001b[0mframe I:21    Avg QP:34.41  size:  1721\r\n\u001b[1;36m[libx264 @ 0x5f9ca80] \u001b[0m" ]
[ 62.92072, "o", "frame P:414   Avg QP:38.98  size:   583\r\n\u001b[1;36m[libx264 @ 0x5f9ca80] \u001b[0mframe B:818   Avg QP:37.58  size:   151\r\n" ]
[ 62.92073, "o", "\u001b[1;36m[libx264 @ 0x5f9ca80] \u001b[0mconsecutive B-frames:  7.6% 11.0% 15.3% 66.1%\r\n\u001b[1;36m[libx264 @ 0x5f9ca80] \u001b[0mmb I  I16..4: 42.1% 56.8%  1.1%\r\n\u001b[1;36m[libx264 @ 0x5f9ca80] \u001b[0mmb P  I16..4:  6.0%  9.0%  0.0%  P16..4:  7.4%  0.3%  0.1%  0.0%  0.0%    skip:77.2%\r\n\u001b[1;36m[libx264 @ 0x5f9ca80] \u001b[0mmb B  I16..4:  0.2%  0.1%  0.0%  B16..8:  6.9%  0.1%  0.0%  direct: 0.0%  skip:92.7%  L0:35.1% L1:64.6% BI: 0.3%\r\n" ]
[ 62.92076, "o", "\u001b[1;36m[libx264 @ 0x5f9ca80] \u001b[0mfinal ratefactor: 43.44\r\n" ]
[ 62.92080, "o", "\u001b[1;36m[libx264 @ 0x5f9ca80] \u001b[0m8x8 transform intra:58.8% inter:98.4%\r\n" ]
[ 62.92081, "o", "\u001b[1;36m[libx264 @ 0x5f9ca80] \u001b[0mcoded y,uvDC,uvAC intra: 3.6% 15.7% 0.2% inter: 0.2% 0.6% 0.0%\r\n\u001b[1;36m[libx264 @ 0x5f9ca80] \u001b[0mi16 v,h,dc,p: 39% 42%  7% 12%\r\n\u001b[1;36m[libx264 @ 0x5f9ca80] \u001b[0mi8 v,h,dc,ddl,ddr,vr,hd,vl,hu:  9%  9% 77%  1%  1%  1%  1%  1%  1%\r\n" ]
[ 62.92093, "o", "\u001b[1;36m[libx264 @ 0x5f9ca80] \u001b[0mi4 v,h,dc,ddl,ddr,vr,hd,vl,hu: 33% 21% 23%  3%  5%  5%  4%  3%  4%\r\n\u001b[1;36m[libx264 @ 0x5f9ca80] \u001b[0mi8c dc,h,v,p: 93%  5%  2%  0%\r\n\u001b[1;36m[libx264 @ 0x5f9ca80] \u001b[0mWeighted P-Frames: Y:39.1% UV:26.6%\r\n\u001b[1;36m[libx264 @ 0x5f9ca80] \u001b[0mref P L0: 69.6%  4.6% 17.8%  6.3%  1.7%\r\n\u001b[1;36m[libx264 @ 0x5f9ca80] \u001b[0mref B L0: 83.2% 13.4%  3.4%\r\n\u001b[1;36m[libx264 @ 0x5f9ca80] \u001b[0mref B L1: 97.1%  2.9%\r\n\u001b[1;36m[libx264 @ 0x5f9ca80] \u001b[0mkb/s:61.48\r\n" ]
[ 62.92598, "o", "\u001b[1;36m[aac @ 0x5f9b500] \u001b[0mQavg: 658.517\r\n" ]
[ 62.92982, "o", "\u001b[?2004h\r\n" ]
[ 62.92983, "o", "\u001b[19491001\u001b[1;35m> \u001b[20210325\u001b[0m" ]
[ 64.85660, "o", "# " ]
[ 64.96095, "o", "修" ]
[ 65.11664, "o", "改" ]
[ 65.27253, "o", "视" ]
[ 65.42766, "o", "频" ]
[ 65.58309, "o", "分" ]
[ 65.73875, "o", "辨" ]
[ 65.89383, "o", "率" ]
[ 65.94556, "o", "\r\n\u001b[?2004l\r" ]
[ 65.94564, "o", "\u001b[?2004h\r\n\u001b[19491001\u001b[1;35m> \u001b[20210325\u001b[0m" ]
[ 67.44958, "o", "x" ]
[ 67.50219, "o", " " ]
[ 67.55462, "o", "f" ]
[ 67.60644, "o", "f" ]
[ 67.65824, "o", "m" ]
[ 67.71064, "o", "p" ]
[ 67.76251, "o", "e" ]
[ 67.81463, "o", "g" ]
[ 67.86679, "o", " " ]
[ 67.91924, "o", "-" ]
[ 67.97102, "o", "i" ]
[ 68.02274, "o", " " ]
[ 68.07462, "o", "t" ]
[ 68.12638, "o", "e" ]
[ 68.17809, "o", "s" ]
[ 68.22982, "o", "t" ]
[ 68.28153, "o", "." ]
[ 68.33380, "o", "m" ]
[ 68.38604, "o", "p" ]
[ 68.43810, "o", "4" ]
[ 68.48952, "o", " " ]
[ 68.54120, "o", "-" ]
[ 68.59329, "o", "s" ]
[ 68.64574, "o", " " ]
[ 68.69790, "o", "4" ]
[ 68.75025, "o", "8" ]
[ 68.80207, "o", "0" ]
[ 68.85482, "o", "x" ]
[ 68.90719, "o", "2" ]
[ 68.95937, "o", "7" ]
[ 69.01143, "o", "0" ]
[ 69.06308, "o", " " ]
[ 69.11455, "o", "t" ]
[ 69.16673, "o", "e" ]
[ 69.21920, "o", "s" ]
[ 69.27095, "o", "t" ]
[ 69.32297, "o", "3" ]
[ 69.37520, "o", "." ]
[ 69.42777, "o", "m" ]
[ 69.48017, "o", "p" ]
[ 69.53204, "o", "4" ]
[ 71.08571, "o", "\r\n\u001b[?2004l\r" ]
[ 71.09591, "o", "ffmpeg version 6.0-static https://johnvansickle.com/ffmpeg/  Copyright (c) 2000-2023 the FFmpeg developers\r\n  built with gcc 8 (Debian 8.3.0-6)\r\n  configuration: --enable-gpl --enable-version3 --enable-static --disable-debug --disable-ffplay --disable-indev=sndio --disable-outdev=sndio --cc=gcc --enable-fontconfig --enable-frei0r --enable-gnutls --enable-gmp --enable-libgme --enable-gray --enable-libaom --enable-libfribidi --enable-libass --enable-libvmaf --enable-libfreetype --enable-libmp3lame --enable-libopencore-amrnb --enable-libopencore-amrwb --enable-libopenjpeg --enable-librubberband --enable-libsoxr --enable-libspeex --enable-libsrt --enable-libvorbis --enable-libopus --enable-libtheora --enable-libvidstab --enable-libvo-amrwbenc --enable-libvpx --enable-libwebp --enable-libx264 --enable-libx265 --enable-libxml2 --enable-libdav1d --enable-libxvid --enable-libzvbi --enable-libzimg\r\n  libavutil      58.  2.100 / 58.  2.100\r\n  libavcodec     60.  3.100 / 60.  3.100\r\n  libavformat    60.  3.100 / 60.  3.100\r\n  libavdevice    60.  1.100 / 60.  1.100\r\n  libavfilter     9.  3.100 /  9.  3.100\r\n  libswscale      7.  1.100 /  7.  1.100\r\n  libswresample   4. 10.100 /  4. 10.100\r\n  libpostproc    57.  1.100 / 57.  1.100\r\n" ]
[ 71.09597, "o", "Input #0, mov,mp4,m4a,3gp,3g2,mj2, from 'test.mp4':\r\n  Metadata:\r\n    major_brand     : isom\r\n    minor_version   : 512\r\n    compatible_brands: isomiso2avc1mp41\r\n    creation_time   : 1970-01-01T00:00:00.000000Z\r\n    title           : Sintel Trailer\r\n    artist          : Durian Open Movie Team\r\n    encoder         : Lavf52.62.0\r\n    copyright       : (c) copyright Blender Foundation | durian.blender.org\r\n    description     : Trailer for the Sintel open movie project\r\n  Duration: 00:00:52.21, start: 0.000000, bitrate: 669 kb/s\r\n  Stream #0:0[0x1](und): Video: h264 (High) (avc1 / 0x31637661), yuv420p(progressive), 854x480, 537 kb/s, 24 fps, 24 tbr, 24 tbn (default)\r\n    Metadata:\r\n      creation_time   : 1970-01-01T00:00:00.000000Z\r\n      handler_name    : VideoHandler\r\n      vendor_id       : [0][0][0][0]\r\n  Stream #0:1[0x2](und): Audio: aac (LC) (mp4a / 0x6134706D), 48000 Hz, stereo, fltp, 126 kb/s (default)\r\n    Metadata:\r\n      creation_time   : 1970-01-01T00:00:00.000000Z\r\n      handler_name    : SoundHandler\r\n      vendor_id       : [0][0][0][0]\r\n" ]
[ 71.09742, "o", "Stream mapping:\r\n  Stream #0:0 -> #0:0 (h264 (native) -> h264 (libx264))\r\n" ]
[ 71.09743, "o", "  Stream #0:1 -> #0:1 (aac (native) -> aac (native))\r\nPress [q] to stop, [?] for help\r\n" ]
[ 71.12757, "o", "\u001b[1;36m[libx264 @ 0x68d5a80] \u001b[0musing cpu capabilities: MMX2 SSE2Fast SSSE3 SSE4.2 AVX FMA3 BMI2 AVX2\r\n" ]
[ 71.12875, "o", "\u001b[1;36m[libx264 @ 0x68d5a80] \u001b[0mprofile High, level 2.1, 4:2:0, 8-bit\r\n\u001b[1;36m[libx264 @ 0x68d5a80] \u001b[0m" ]
[ 71.12876, "o", "264 - core 164 r3106 eaa68fa - H.264/MPEG-4 AVC codec - Copyleft 2003-2023 - http://www.videolan.org/x264.html - options: cabac=1 ref=3 deblock=1:0:0 analyse=0x3:0x113 me=hex subme=7 psy=1 psy_rd=1.00:0.00 mixed_ref=1 me_range=16 chroma_me=1 trellis=1 8x8dct=1 cqm=0 deadzone=21,11 fast_pskip=1 chroma_qp_offset=-2 threads=8 lookahead_threads=1 sliced_threads=0 nr=0 decimate=1 interlaced=0 bluray_compat=0 constrained_intra=0 bframes=3 b_pyramid=2 b_adapt=1 b_bias=0 direct=1 weightb=1 open_gop=0 weightp=2 keyint=250 keyint_min=24 scenecut=40 intra_refresh=0 rc_lookahead=40 rc=crf mbtree=1 crf=23.0 qcomp=0.60 qpmin=0 qpmax=69 qpstep=4 ip_ratio=1.40 aq=1:1.00\r\n" ]
[ 71.12885, "o", "Output #0, mp4, to 'test3.mp4':\r\n  Metadata:\r\n" ]
[ 71.12887, "o", "    major_brand     : isom\r\n    minor_version   : 512" ]
[ 71.12887, "o", "\r\n    compatible_brands: isomiso2avc1mp41\r\n    description     : Trailer for the Sintel open movie project" ]
[ 71.12897, "o", "\r\n    title           : Sintel Trailer\r\n    artist          : Durian Open Movie Team\r\n    copyright       : (c) copyright Blender Foundation | durian.blender.org\r\n    encoder         : Lavf60.3.100\r\n" ]
[ 71.12899, "o", "  Stream #0:0(und): Video: h264 (avc1 / 0x31637661), yuv420p(tv, progressive), 480x270, q=2-31, " ]
[ 71.12899, "o", "24 fps, " ]
[ 71.12902, "o", "12288 tbn (default)" ]
[ 71.12903, "o", "\r\n    Metadata:\r\n" ]
[ 71.12920, "o", "      creation_time   : 1970-01-01T00:00:00.000000Z\r\n      handler_name    : VideoHandler\r\n      vendor_id       : [0][0][0][0]\r\n      encoder         : Lavc60.3.100 libx264\r\n    Side data:\r\n      cpb: bitrate max/min/avg: 0/0/0 buffer size: 0 vbv_delay: N/A\r\n  Stream #0:1(und): Audio: aac (LC) (mp4a / 0x6134706D), 48000 Hz, stereo, fltp, 128 kb/s (default)\r\n    Metadata:\r\n      creation_time   : 1970-01-01T00:00:00.000000Z\r\n      handler_name    : SoundHandler\r\n      vendor_id       : [0][0][0][0]\r\n      encoder         : Lavc60.3.100 aac\r\n" ]
[ 71.12974, "o", "frame=    0 fps=0.0 q=0.0 size=       0kB time=00:00:00.27 bitrate=   1.4kbits/s speed=12.9x    \r" ]
[ 71.62044, "o", "frame=   79 fps=0.0 q=28.0 size=       0kB time=00:00:05.73 bitrate=   0.1kbits/s speed=  11x    \r" ]
[ 72.12156, "o", "frame=  254 fps=248 q=28.0 size=     256kB time=00:00:13.03 bitrate= 160.9kbits/s speed=12.7x    \r" ]
[ 72.62164, "o", "frame=  457 fps=300 q=28.0 size=     512kB time=00:00:21.46 bitrate= 195.5kbits/s speed=14.1x    \r" ]
[ 73.12241, "o", "frame=  622 fps=307 q=28.0 size=    1024kB time=00:00:28.35 bitrate= 295.9kbits/s speed=  14x    \r" ]
[ 73.62235, "o", "frame=  773 fps=306 q=28.0 size=    1280kB time=00:00:34.62 bitrate= 302.9kbits/s speed=13.7x    \r" ]
[ 74.12314, "o", "frame=  926 fps=306 q=28.0 size=    1536kB time=00:00:41.02 bitrate= 306.7kbits/s speed=13.6x    \r" ]
[ 74.62387, "o", "frame= 1182 fps=335 q=28.0 size=    1792kB time=00:00:51.69 bitrate= 284.0kbits/s speed=14.7x    \r" ]
[ 74.66398, "o", "frame= 1253 fps=351 q=-1.0 Lsize=    2005kB time=00:00:52.08 bitrate= 315.3kbits/s speed=14.6x    \r\nvideo:1152kB audio:817kB subtitle:0kB other streams:0kB global headers:0kB muxing overhead: 1.827018%\r\n" ]
[ 74.66528, "o", "\u001b[1;36m[libx264 @ 0x68d5a80] \u001b[0mframe I:18    Avg QP:14.57  size:  3711\r\n\u001b[1;36m[libx264 @ 0x68d5a80] \u001b[0mframe P:434   Avg QP:19.55  size:  1568\r\n\u001b[1;36m[libx264 @ 0x68d5a80] \u001b[0mframe B:801   Avg QP:20.59  size:   539\r\n\u001b[1;36m[libx264 @ 0x68d5a80] \u001b[0mconsecutive B-frames: 10.6%  9.4%  9.1% 70.9%\r\n\u001b[1;36m[libx264 @ 0x68d5a80] \u001b[0mmb I  I16..4: 48.1% 41.4% 10.4%\r\n\u001b[1;36m[libx264 @ 0x68d5a80] \u001b[0mmb P  I16..4:  5.1%  7.9%  1.5%  P16..4: 20.8%  7.7%  3.2%  0.0%  0.0%    skip:53.7%\r\n\u001b[1;36m[libx264 @ 0x68d5a80] \u001b[0mmb B  I16..4:  0.5%  0.9%  0.3%  B16..8: 18.7%  3.4%  0.6%  direct: 1.5%  skip:74.1%  L0:38.8% L1:50.4% BI:10.7%\r\n" ]
[ 74.66530, "o", "\u001b[1;36m[libx264 @ 0x68d5a80] \u001b[0m8x8 transform intra:51.2% inter:74.3%\r\n\u001b[1;36m[libx264 @ 0x68d5a80] \u001b[0mcoded y,uvDC,uvAC intra: 36.0% 38.1% 15.2% inter: 7.0% 7.7% 0.3%\r\n" ]
[ 74.66534, "o", "\u001b[1;36m[libx264 @ 0x68d5a80] \u001b[0mi16 v,h,dc,p: 27% 47%  6% 20%\r\n\u001b[1;36m[libx264 @ 0x68d5a80] \u001b[0mi8 v,h,dc,ddl,ddr,vr,hd,vl,hu: 15% 26% 24%  5%  6%  5%  7%  5%  6%\r\n\u001b[1;36m[libx264 @ 0x68d5a80] \u001b[0mi4 v,h,dc,ddl,ddr,vr,hd,vl,hu: 17% 27% 17%  6%  8%  7%  8%  5%  5%\r\n\u001b[1;36m[libx264 @ 0x68d5a80] \u001b[0mi8c dc,h,v,p: 61% 26%  9%  4%\r\n" ]
[ 74.66534, "o", "\u001b[1;36m[libx264 @ 0x68d5a80] \u001b[0mWeighted P-Frames: Y:38.9% UV:24.9%\r\n\u001b[1;36m[libx264 @ 0x68d5a80] \u001b[0mref P L0: 72.5% 12.1% 11.5%  3.4%  0.6%\r\n" ]
[ 74.66535, "o", "\u001b[1;36m[libx264 @ 0x68d5a80] \u001b[0mref B L0: 90.7%  7.4%  1.9%\r\n\u001b[1;36m[libx264 @ 0x68d5a80] \u001b[0mref B L1: 97.6%  2.4%\r\n" ]
[ 74.66541, "o", "\u001b[1;36m[libx264 @ 0x68d5a80] \u001b[0mkb/s:180.66\r\n" ]
[ 74.66635, "o", "\u001b[1;36m[aac @ 0x68d4500] \u001b[0mQavg: 658.517\r\n" ]
[ 74.67168, "o", "\u001b[?2004h\r\n\u001b[19491001\u001b[1;35m> \u001b[20210325\u001b[0m" ]
[ 79.14167, "o", "\u001b[?2004l\r\r\nexit\r\n" ]
